<?xml version="1.0" encoding="utf-8"?>
<!-- Generator: Adobe Illustrator 24.0.3, SVG Export Plug-In . SVG Version: 6.00 Build 0)  -->
<svg version="1.1" id="Layer_1" xmlns="http://www.w3.org/2000/svg" xmlns:xlink="http://www.w3.org/1999/xlink" x="0px" y="0px"
	 viewBox="0 0 1000 254.38" style="enable-background:new 0 0 1000 254.38;" xml:space="preserve">
<style type="text/css">
	.st0{fill:#005A9C;}
	.st1{fill:#A90533;}
</style>
<g>
	<path class="st0" d="M181.46,157.18c-22.42,18.15-52.04,24.28-80.59,24.28C48.57,181.46,0,152.11,0,90.73C0,35.76,48.57,0,100.87,0
		c24.55,0,54.71,6.41,76.59,20.28l-8.27,25.08c-1.07,3.2-2.94,9.07-3.74,9.07c-0.8,0-2.13-4-2.94-6.94
		c-5.6-23.22-22.15-41.82-61.64-42.62c-48.57,0-70.49,46.09-70.49,85.85c0,39.76,24.06,85.85,81.17,85.85
		c26.15,0,45.9-15.94,57.64-42.89c1.33-3.2,1.6-5.6,2.94-5.6c1.07,0,1.33,0.8,2.4,4.8L181.46,157.18z"/>
	<path class="st0" d="M377.45,149.01l28.24-54.93c3.97-8.6,7.5-16.77,7.5-23.16c0-7.5-4.85-10.15-10.15-11.91
		c-1.1-0.22-1.99-0.66-1.99-1.32c0-0.66,0.88-0.88,2.21-0.88c5.74,0,7.72,0.88,16.77,0.88c8.6,0,10.59-0.88,16.32-0.88
		c1.54,0,2.87,0,2.87,0.66c0,0.88-0.66,1.76-1.99,2.65c-7.28,5.07-15,16.77-22.5,30.22l-43.02,82.28c-0.66,1.32-1.99,3.09-2.65,3.09
		h-0.44c-0.66,0-0.88-1.1-2.21-3.31l-38.61-75.22c-8.38-16.77-15.44-31.1-24.71-37.28c-1.76-1.1-2.65-1.54-2.65-2.21
		c0-0.88,1.32-0.88,2.87-0.88c3.53,0,9.04,0.88,19.63,0.88c10.15,0,18.09-0.88,19.85-0.88c1.1,0,2.87,0.22,2.87,0.88
		c0,0.66-0.88,1.32-1.99,1.76c-3.53,0.88-6.18,3.53-6.18,8.38c0,4.41,3.53,10.81,5.52,15L377.45,149.01z"/>
	<path class="st0" d="M448.24,99.59c-0.44,5.07-0.66,9.71-0.66,14.34c0,41.03,21.18,56.25,42.58,56.25
		c25.37,0,44.12-17.43,51.62-43.24h4.63c-7.06,30.44-29.12,48.75-59.12,48.75c-37.5,0-65.3-25.37-65.3-60.67
		c0-35.3,27.8-60.66,65.3-60.66c24.05,0,53.17,14.56,56.25,45.22H448.24z M515.75,95.4c0-21.62-10.37-36.84-33.31-36.84
		c-20.07,0-30.88,17.87-33.31,36.84H515.75z"/>
	<path class="st0" d="M574.56,88.56H575c5.07-18.75,15.88-34.19,45-34.19c24.27,0,46.99,12.57,46.99,47.65v42.58
		c-0.44,20.96,2.43,24.05,8.82,26.25c1.54,0.44,2.87,1.1,2.87,1.54c0,0.66-1.1,0.66-3.31,0.66c-1.99,0-7.72-0.66-19.85-0.66
		c-11.91,0-19.85,0.66-22.72,0.66c-1.32,0-2.43,0-2.43-0.66c0-0.44,0.44-1.1,1.99-1.32c7.94-0.88,11.91-6.84,11.91-26.47v-42.8
		c0-20.3-9.04-41.91-32.43-41.91c-26.25,0-34.86,26.91-34.86,57.8v26.91c0,13.9,0.66,24.27,10.59,26.03
		c1.54,0.22,2.43,0.66,2.43,1.32c0,0.88-0.66,1.1-1.99,1.1c-1.54,0-10.59-0.66-22.5-0.66s-22.06,0.66-23.6,0.66
		c-1.32,0-1.99-0.22-1.99-1.1c0-0.66,0.88-1.1,2.43-1.32c11.03-1.76,11.91-12.13,11.91-26.03V89.88c0-13.24-1.54-20.74-7.72-23.38
		c-2.43-1.1-3.97-1.76-3.97-2.21c0-0.66,1.54-0.66,4.19-1.1c10.59-1.99,19.63-3.53,27.8-6.4V88.56z"/>
	<path class="st0" d="M785.89,153.2c0,7.28,1.1,13.9,7.94,16.99c1.32,0.66,2.21,0.66,2.21,1.32c0,0.66-1.32,0.88-2.87,0.88h-23.83
		c-3.09-7.06-4.85-14.78-5.29-22.5h-0.44c-8.6,17.87-21.4,25.81-40.81,25.81c-22.94,0-46.55-10.59-46.55-36.84
		c0-33.53,51.18-36.84,74.34-36.84h12.57v-7.28c0-21.18-9.93-36.18-32.21-36.18c-20.3,0-32.21,5.96-40.15,25.37
		c-0.88,1.99-1.32,3.75-1.76,3.75c-0.44,0-0.66-1.1-1.1-2.43l-5.73-19.85c18.09-9.49,32.43-11.03,52.06-11.03
		c25.15,0,51.62,9.04,51.62,36.84V153.2z M763.17,106.21h-13.02c-23.82,0-48.31,7.06-48.31,36.18c0,16.1,11.69,27.8,27.35,27.8
		c26.03,0,33.97-27.35,33.97-48.53V106.21z"/>
	<path class="st0" d="M827.99,88.56h0.44c5.07-18.75,15.88-34.19,45-34.19c24.27,0,46.99,12.57,46.99,47.65v42.58
		c-0.44,20.96,2.43,24.05,8.82,26.25c1.54,0.44,2.87,1.1,2.87,1.54c0,0.66-1.1,0.66-3.31,0.66c-1.99,0-7.72-0.66-19.85-0.66
		c-11.91,0-19.85,0.66-22.72,0.66c-1.32,0-2.43,0-2.43-0.66c0-0.44,0.44-1.1,1.99-1.32c7.94-0.88,11.91-6.84,11.91-26.47v-42.8
		c0-20.3-9.04-41.91-32.43-41.91c-26.25,0-34.85,26.91-34.85,57.8v26.91c0,13.9,0.66,24.27,10.59,26.03
		c1.54,0.22,2.43,0.66,2.43,1.32c0,0.88-0.66,1.1-1.99,1.1c-1.54,0-10.59-0.66-22.5-0.66s-22.06,0.66-23.6,0.66
		c-1.32,0-1.99-0.22-1.99-1.1c0-0.66,0.88-1.1,2.43-1.32c11.03-1.76,11.91-12.13,11.91-26.03V89.88c0-13.24-1.54-20.74-7.72-23.38
		c-2.43-1.1-3.97-1.76-3.97-2.21c0-0.66,1.54-0.66,4.19-1.1c10.59-1.99,19.63-3.53,27.8-6.4V88.56z"/>
	<path class="st0" d="M925.62,70.25c-1.32,0-2.21-0.88-2.21-1.99c0-1.1,1.76-1.99,4.41-3.09c12.57-4.41,23.16-14.56,31.33-31.33
		c0.66-1.54,1.54-2.21,2.43-2.21c1.1,0,1.1,1.54,1.1,3.09v28.46h24.49l-1.54,7.06h-22.94v62.65c0,29.34,7.06,34.63,14.12,37.06
		c1.76,0.66,2.65,0.88,2.65,1.54c0,0.66-1.54,0.88-3.53,0.88h-26.69c-6.18-2.87-9.27-7.72-9.27-16.1V70.25H925.62z"/>
	<path class="st0" d="M580.36,216.06v-21.63c0-4.39-1.18-7.92-4.6-8.78c-0.54-0.21-1.07-0.54-1.07-0.64c0-0.32,0.64-0.43,1.61-0.43
		c1.71,0,6.85,0.43,10.28,0.43c3.43,0,8.57-0.43,10.28-0.43c0.96,0,1.61,0.11,1.61,0.43c0,0.11-0.54,0.43-1.07,0.64
		c-3.43,0.86-4.6,4.39-4.6,8.78v47.54c0,5.25,0.96,8.35,5.78,10.71c0.64,0.32,0.96,0.53,0.96,0.86c0,0.32-0.64,0.32-1.71,0.32
		c-3.85,0-5.14-0.32-11.24-0.32c-6.1,0-7.39,0.32-11.24,0.32c-1.07,0-1.71,0-1.71-0.32c0-0.32,0.32-0.54,0.96-0.86
		c4.82-2.36,5.78-5.46,5.78-10.71v-23.24h-40.8v23.24c0,5.25,0.96,8.35,5.78,10.71c0.64,0.32,0.96,0.53,0.96,0.86
		c0,0.32-0.64,0.32-1.71,0.32c-3.85,0-5.14-0.32-11.24-0.32c-6.1,0-7.39,0.32-11.24,0.32c-1.07,0-1.71,0-1.71-0.32
		c0-0.32,0.32-0.54,0.96-0.86c4.82-2.36,5.78-5.46,5.78-10.71v-47.54c0-4.39-1.18-7.92-4.6-8.78c-0.54-0.21-1.07-0.54-1.07-0.64
		c0-0.32,0.64-0.43,1.61-0.43c1.71,0,6.85,0.43,10.28,0.43c3.43,0,8.57-0.43,10.28-0.43c0.96,0,1.61,0.11,1.61,0.43
		c0,0.11-0.54,0.43-1.07,0.64c-3.43,0.86-4.6,4.39-4.6,8.78v21.63H580.36z"/>
	<path class="st0" d="M625.05,216.06h19.81c7.82,0,14.67-3.64,16.17-8.03c0.21-0.64,0.54-0.96,0.86-0.96s0.43,0.54,0.43,1.61v17.67
		c0,1.82-0.11,2.25-0.43,2.25c-0.43,0-0.54-0.75-0.86-1.5c-3.11-7.92-11.89-8.35-19.38-8.35h-16.6v22.59c0,7.82,2.68,9.53,9.96,9.53
		h12.1c8.99,0,20.99-5.03,27.95-11.67c1.28-1.18,2.68-2.25,2.89-2.25c0.21,0,0.32,0.11,0.32,0.32c0,0.21-0.11,0.43-0.21,0.86
		l-4.71,15.42h-65.21c-2.46,0-3.21-0.11-3.21-0.43s2.25-0.96,3-1.61c3.96-3.11,4.71-6.1,4.71-15.85v-36.41
		c0-6.96-0.43-11.56-4.71-12.64c-0.75-0.32-1.82-0.64-1.82-0.96c0-0.43,0.43-0.64,2.03-0.64h60.5l2.89,10.07
		c0.32,1.07,0.96,2.68,0.96,3.96c0,0.43-0.21,0.86-0.53,0.86c-0.43,0-0.96-0.43-1.28-0.96c-4.5-7.39-15.85-11.24-25.91-11.24h-19.7
		V216.06z"/>
	<path class="st0" d="M705.72,222.27l-5.78,11.24c-1.93,3.75-3.75,7.82-3.75,12.21c0,4.6,2.89,5.78,5.78,6.85
		c0.86,0.21,1.18,0.43,1.18,0.75c0,0.43-0.54,0.54-1.29,0.54c-0.75,0-4.6-0.32-10.49-0.32c-4.28,0-7.07,0.32-8.35,0.32
		c-1.07,0-1.39-0.21-1.39-0.54c0-0.75,1.28-1.18,2.03-1.71c4.28-3.43,10.07-12.31,12.42-16.92l26.24-50.97
		c0.32-0.54,0.54-0.86,0.75-0.86h0.21c0.32,0,0.64,0.43,0.86,0.86l31.48,58.89c1.82,3.32,3.96,6.42,7.17,8.89
		c1.18,0.86,2.46,1.28,2.46,1.82c0,0.32-0.54,0.54-1.5,0.54c-0.75,0-5.78-0.32-11.99-0.32c-8.78,0-12.31,0.32-12.96,0.32
		c-0.54,0-1.07-0.11-1.07-0.32c0-0.43,0.53-0.64,1.39-0.86c2.46-0.86,3-2.89,3-5.57c0-1.93-2.25-7.17-4.82-12.21l-6.1-12.64H705.72z
		 M718.36,197.32l-11.24,22.27h22.7L718.36,197.32z"/>
	<path class="st0" d="M788.42,239.3c0,10.71,4.07,11.56,13.17,11.56h5.67c8.99,0,21.63-4.82,28.16-12.42
		c1.18-1.39,1.71-2.57,2.25-2.57c0.32,0,0.64,0.21,0.64,0.75c0,0.43-0.32,0.96-0.43,1.5l-4.39,15.42h-62.96
		c-1.82,0-2.36-0.21-2.36-0.54c0-0.21,0.75-0.32,2.57-0.96c4.18-1.82,5.25-5.78,5.25-15.31v-42.3c0-4.39-1.71-7.6-4.6-8.57
		c-0.75-0.32-1.07-0.54-1.07-0.86c0-0.32,0.64-0.43,1.61-0.43c1.71,0,6.85,0.43,10.28,0.43c3.43,0,8.57-0.43,10.28-0.43
		c0.96,0,1.29,0.11,1.29,0.54c0,0.32-0.54,0.43-0.96,0.64c-3.21,1.39-4.39,4.28-4.39,8.67V239.3z"/>
	<path class="st0" d="M854.31,192.61c0-4.18-1.82-4.93-6.64-4.93c-10.6,0-17.78,6-22.59,10.6c-0.75,0.75-1.71,1.82-1.93,1.82
		c-0.32,0-0.53-0.32-0.53-0.64c0-0.43,0.43-1.39,0.75-2.46l3.43-11.99h67.46l3.43,11.99c0.32,1.07,0.75,2.03,0.75,2.46
		c0,0.32-0.21,0.64-0.54,0.64c-0.21,0-1.18-1.07-1.93-1.82c-4.82-4.61-11.99-10.6-22.59-10.6c-4.82,0-6.64,0.75-6.64,4.93v49.36
		c0,5.25,1.39,9.42,6.43,10.39c0.96,0.11,1.61,0.54,1.61,0.86c0,0.21-0.43,0.64-0.86,0.64c-0.75,0-7.28-0.32-13.39-0.32
		c-6.1,0-12.42,0.32-13.17,0.32c-0.64,0-0.96-0.21-0.96-0.54c0-0.43,0.96-0.43,2.03-0.86c4.93-2.14,5.89-5.25,5.89-15.21V192.61z"/>
	<path class="st0" d="M963.03,216.06v-21.63c0-4.39-1.18-7.92-4.6-8.78c-0.54-0.21-1.07-0.54-1.07-0.64c0-0.32,0.64-0.43,1.61-0.43
		c1.71,0,6.85,0.43,10.28,0.43c3.43,0,8.57-0.43,10.28-0.43c0.96,0,1.61,0.11,1.61,0.43c0,0.11-0.53,0.43-1.07,0.64
		c-3.43,0.86-4.6,4.39-4.6,8.78v47.54c0,5.25,0.96,8.35,5.78,10.71c0.64,0.32,0.96,0.53,0.96,0.86c0,0.32-0.64,0.32-1.71,0.32
		c-3.85,0-5.14-0.32-11.24-0.32c-6.1,0-7.39,0.32-11.24,0.32c-1.07,0-1.71,0-1.71-0.32c0-0.32,0.32-0.54,0.96-0.86
		c4.82-2.36,5.78-5.46,5.78-10.71v-23.24h-40.8v23.24c0,5.25,0.96,8.35,5.78,10.71c0.64,0.32,0.96,0.53,0.96,0.86
		c0,0.32-0.64,0.32-1.71,0.32c-3.85,0-5.14-0.32-11.24-0.32c-6.1,0-7.39,0.32-11.24,0.32c-1.07,0-1.71,0-1.71-0.32
		c0-0.32,0.32-0.54,0.96-0.86c4.82-2.36,5.78-5.46,5.78-10.71v-47.54c0-4.39-1.18-7.92-4.6-8.78c-0.54-0.21-1.07-0.54-1.07-0.64
		c0-0.32,0.64-0.43,1.61-0.43c1.71,0,6.85,0.43,10.28,0.43c3.43,0,8.57-0.43,10.28-0.43c0.96,0,1.61,0.11,1.61,0.43
		c0,0.11-0.54,0.43-1.07,0.64c-3.43,0.86-4.6,4.39-4.6,8.78v21.63H963.03z"/>
	<path class="st1" d="M318.72,105.77c-0.87,16.84-3.61,29.56-12.86,42.66c-16.51,23.38-43.02,27.21-62.23,21.8
		c-24.23-6.82-51.56-38.86-35.71-75.12c4.13-9.45,15.96-25.01,35.14-27.58c-14.21-0.47-29.52,5.28-41.08,19.36
		c-23.25,28.3-14.72,73.88,19.67,90.89c27.66,13.68,69.73,7.19,89.51-28C317.86,137.85,320.81,120.68,318.72,105.77z"/>
	<path class="st0" d="M183.14,126.92c0.87-16.84,3.61-29.56,12.86-42.66c16.51-23.38,43.02-27.21,62.23-21.8
		c24.23,6.82,51.56,38.86,35.71,75.12c-4.13,9.46-15.96,25.01-35.14,27.58c14.21,0.47,29.52-5.28,41.08-19.36
		c23.25-28.3,14.71-73.88-19.67-90.89c-27.66-13.68-69.73-7.19-89.51,28C184,94.84,181.05,112.01,183.14,126.92z"/>
	<path class="st0" d="M996.97,241.94c1.29,1.3,1.93,2.86,1.93,4.7c0,1.85-0.64,3.43-1.93,4.73c-1.29,1.3-2.85,1.95-4.7,1.95
		c-1.84,0-3.41-0.65-4.7-1.95c-1.28-1.3-1.92-2.88-1.92-4.73c0-1.84,0.64-3.4,1.93-4.7c1.3-1.3,2.86-1.95,4.69-1.95
		C994.11,239.98,995.68,240.64,996.97,241.94z M997.74,241.19c-1.51-1.5-3.33-2.25-5.46-2.25c-2.12,0-3.93,0.75-5.43,2.25
		c-1.51,1.51-2.26,3.32-2.26,5.44c0,2.14,0.75,3.97,2.24,5.48c1.5,1.51,3.32,2.27,5.45,2.27c2.14,0,3.96-0.76,5.46-2.27
		c1.51-1.51,2.26-3.34,2.26-5.48C1000,244.51,999.25,242.69,997.74,241.19z M993.42,246.28c-0.32,0.13-0.79,0.19-1.42,0.19h-1.35
		v-3.07h1.27c0.83,0,1.43,0.1,1.8,0.32c0.37,0.21,0.56,0.62,0.56,1.24C994.29,245.61,994,246.05,993.42,246.28z M989.17,250.85h1.49
		v-3.34h1.18c0.79,0,1.35,0.09,1.66,0.27c0.53,0.32,0.8,0.96,0.8,1.94v0.67l0.03,0.27c0.01,0.04,0.01,0.07,0.02,0.09
		c0.01,0.03,0.01,0.06,0.02,0.08h1.4l-0.05-0.1c-0.03-0.07-0.06-0.22-0.07-0.44s-0.02-0.43-0.02-0.63v-0.62
		c0-0.43-0.15-0.87-0.46-1.31c-0.31-0.45-0.8-0.73-1.46-0.83c0.53-0.08,0.94-0.22,1.23-0.41c0.55-0.36,0.83-0.91,0.83-1.67
		c0-1.06-0.44-1.78-1.31-2.14c-0.49-0.2-1.26-0.3-2.31-0.3h-2.96V250.85z"/>
</g>
</svg>
